<svg xmlns="http://www.w3.org/2000/svg" viewBox="0 0 374.28 257.09"><defs><style>.cls-1{fill:#012e4a;}</style></defs><title>Asset4</title><g id="Layer_2" data-name="Layer 2"><g id="Layer_1-2" data-name="Layer 1"><path class="cls-1" d="M362.46,121.5c-2.9,0-5.24-.06-7.38-.21s-3.56-3.57-3.72-4c-2.26-5.25-4.5-10.61-6.67-15.8-2.88-6.86-5.85-14-8.87-20.9A36.15,36.15,0,0,0,330.49,72c-3.18-3.79-7-5.72-11.43-5.72a17.92,17.92,0,0,0-3.63.4c-6.51,1.38-10.6,4.88-12.14,10.4C300,89,299.88,100.43,303.05,111a19,19,0,0,0,3.47,5.67c.76,1,1.54,2,2.28,3.09l1,1.56H280l1-1.54c6.06-9.31,6-19.2,5.85-29.66,0-1.59,0-3.17,0-4.75V83.43c.06-13.94.12-28.36.09-42.53,0-8.61-.46-17.73-5.71-26.34L280.29,13h32l-2.77,1.83c-6.82,4.52-7.94,10.88-8.13,17.08-.29,9.45-.23,18.7-.17,28.5,0,3.06,0,6.14.05,9.22,5.42-6.05,12.67-9,22.07-9a5.9,5.9,0,0,0,4.13-2.27c4.34-7.16,8.66-14.5,12.83-21.59,3.95-6.7,8-13.63,12.11-20.4A8.29,8.29,0,0,1,358,12.88a45.47,45.47,0,0,1,5.15-.25c1.16,0,2.33,0,3.5,0s2.35.05,3.54.05H372L338.7,65.16C348,72.5,352.27,82.3,356.4,91.8c.52,1.21,1.05,2.41,1.58,3.61,2.51,5.65,5.42,11,8.49,16.75,1.39,2.56,2.79,5.16,4.17,7.83l.76,1.46h-1.64l-3.37,0Z"/><path class="cls-1" d="M363.14,13.63c2.32,0,4.67.1,7,.1L337.37,65.39c10.79,8.13,14.83,19.48,19.7,30.43,3.67,8.25,8.25,16.11,12.69,24.63-2.23,0-4.71,0-7.31,0-2.37,0-4.84,0-7.3-.21-1-.07-2.3-2-2.88-3.35C347,104.72,342,92.41,336.73,80.23a36.77,36.77,0,0,0-5.47-8.86c-3.3-3.94-7.36-6.08-12.2-6.08a18.64,18.64,0,0,0-3.84.42c-6.4,1.36-11.12,4.77-12.89,11.11-3.19,11.42-3.66,23-.24,34.47.94,3.13,3.67,5.73,5.88,9H281.85c7.18-11,5.94-23.08,6-34.94.05-14.83.12-29.66.09-44.49,0-9.18-.63-18.27-5.86-26.85H309c-7,4.65-8.36,11.28-8.57,17.88-.41,13.39-.12,26.81-.12,40.56,5.9-8,13.75-10.82,23.07-10.85a6.86,6.86,0,0,0,5-2.75c8.43-13.93,16.53-28.05,24.94-42a7.28,7.28,0,0,1,4.82-3,44.24,44.24,0,0,1,5-.25m0-2h0a44.92,44.92,0,0,0-5.26.26,9.24,9.24,0,0,0-6.31,4c-4.09,6.78-8.17,13.72-12.12,20.43-4.17,7.08-8.49,14.41-12.81,21.56a5,5,0,0,1-3.29,1.78c-8.73,0-15.67,2.52-21.07,7.59,0-2.28,0-4.55,0-6.78-.06-9.79-.12-19,.17-28.46.18-5.93,1.24-12,7.68-16.27L315.63,12H278.51l1.85,3c5.12,8.39,5.56,17.35,5.57,25.82,0,14.23,0,28.7-.09,42.7v1.77c0,1.59,0,3.2,0,4.75.11,10.31.21,20-5.68,29.11l-2,3.09h33.55l-2.08-3.11c-.76-1.13-1.55-2.16-2.32-3.15a18.13,18.13,0,0,1-3.3-5.35c-3.12-10.39-3-21.61.25-33.35,1.45-5.2,5.17-8.37,11.38-9.69a16.58,16.58,0,0,1,3.42-.38c4.16,0,7.64,1.76,10.66,5.36A35.17,35.17,0,0,1,334.9,81c3,6.94,6,14,8.88,20.92,2.17,5.17,4.41,10.52,6.66,15.77.44,1,2.07,4.4,4.57,4.57,2.16.14,4.53.21,7.44.21,1.36,0,2.68,0,3.95,0l3.36,0h3.29l-1.52-2.92c-1.39-2.67-2.8-5.3-4.17-7.84-3.07-5.7-6-11.07-8.46-16.68-.54-1.2-1.06-2.4-1.58-3.61C353.24,82,349,72.36,340,64.94l31.85-50.13,1.95-3.08h-3.64c-1.17,0-2.36,0-3.51-.05s-2.35,0-3.53,0Z"/><path class="cls-1" d="M362,244.77c-3,0-5.32-.06-7.49-.2-.42,0-1.68-.1-3.3-3.91-2-4.71-4-9.44-5.93-14.16-3-7.27-6.16-14.78-9.35-22.12a40.3,40.3,0,0,0-5.53-9.08,14.13,14.13,0,0,0-11.4-5.62,18.79,18.79,0,0,0-4.18.49,15,15,0,0,0-12,11.79,61.6,61.6,0,0,0-.24,30.62,26,26,0,0,0,3.59,7.06c.69,1.09,1.4,2.21,2,3.36l.82,1.48H280.42l.92-1.51c6-10,5.77-21.09,5.54-31.84-.07-2.75-.13-5.59-.09-8.38l0-2.63c.2-13.39.41-27.23-.17-40.79a84.78,84.78,0,0,0-2.44-14.85c-.53-2.33-1.07-4.74-1.53-7.19l-.22-1.19h28.86l-2.06,1.76c-8.16,7-8.21,15.88-8.26,25.3,0,.87,0,1.73,0,2.6-.09,6.77-.07,13.49-.05,20.61,0,2.32,0,4.66,0,7a26.58,26.58,0,0,1,20.65-9.18c.88,0,1.8,0,2.72.11h0a4.46,4.46,0,0,0,2.78-2c7.91-13.17,16.4-27.39,24.78-42.06,1.46-2.56,3-4.14,6.07-4.14h.52c1.37.08,2.86.11,4.68.11l3.57,0c1.25,0,2.52,0,3.82,0h1.86l-1,1.56Q368.6,142,365.93,146c-4.07,6.05-7.91,11.76-11.64,17.63s-7.18,11.58-10.87,17.71l-4.47,7.4c9.17,7.24,13.52,17.35,17.73,27.13.7,1.63,1.4,3.26,2.13,4.88,2.28,5.1,4.95,10,7.78,15.2,1.31,2.39,2.64,4.83,4,7.36l.77,1.47h-1.66l-3.78,0Z"/><path class="cls-1" d="M308.62,137.1c-9.3,8-8.5,18.46-8.63,28.65-.13,9.82,0,19.65,0,30.41,5.92-7.59,13.08-10.92,21.65-10.92.87,0,1.75,0,2.65.11h.11c1.19,0,2.91-1.31,3.6-2.44,8.38-14,16.71-27.95,24.79-42.09,1.35-2.36,2.59-3.63,5.2-3.63h.46c1.57.09,3.15.11,4.74.11,2.4,0,4.84-.06,7.39-.06-6,9-11.7,17.3-17.11,25.79s-10.39,17-15.81,25.89c11,8.27,15.05,20.52,20.27,32.18,3.35,7.5,7.56,14.61,11.77,22.62-2.52,0-5.07,0-7.63,0s-5,0-7.43-.2c-.9,0-1.91-2-2.45-3.3C347,228.19,342.11,216,336.88,204a41.42,41.42,0,0,0-5.67-9.31,15.13,15.13,0,0,0-12.18-6,20,20,0,0,0-4.4.51c-6.77,1.54-11.08,5.71-12.77,12.53-2.56,10.36-2.93,20.81-.23,31.11,1,3.77,3.74,7.09,5.71,10.65H282.2c7.72-12.8,5.39-26.94,5.59-40.72.22-14.49.49-29-.13-43.48-.31-7.28-2.54-14.47-4-22.18h24.95m5.42-2H281.26l.45,2.37c.46,2.47,1,4.89,1.53,7.23a83.38,83.38,0,0,1,2.42,14.67c.58,13.53.37,27.36.17,40.73l0,2.63c0,2.81,0,5.66.09,8.42.24,11.09.47,21.57-5.4,31.3l-1.83,3h32.08l-1.64-3c-.65-1.17-1.37-2.31-2.07-3.41a25.32,25.32,0,0,1-3.46-6.78,60.43,60.43,0,0,1,.25-30.12c1.5-6.06,5.18-9.68,11.26-11.06a18,18,0,0,1,4-.46,13.14,13.14,0,0,1,10.62,5.25,38.86,38.86,0,0,1,5.39,8.85c3.19,7.32,6.32,14.83,9.34,22.09,1.94,4.65,3.94,9.46,5.94,14.18,1.66,3.92,3.17,4.46,4.16,4.52,2.19.14,4.52.2,7.56.2l3.86,0,3.77,0H373l-1.54-2.93c-1.33-2.54-2.68-5-4-7.39-2.82-5.17-5.49-10.06-7.75-15.11-.72-1.62-1.43-3.27-2.12-4.87-4.16-9.66-8.45-19.63-17.34-27l4-6.63c3.69-6.13,7.18-11.92,10.87-17.71s7.55-11.55,11.6-17.58c1.8-2.68,3.63-5.39,5.48-8.18l2.07-3.11h-3.73c-1.3,0-2.58,0-3.83,0l-3.56,0c-1.8,0-3.27,0-4.63-.1a5.62,5.62,0,0,0-.57,0c-3.95,0-5.65,2.4-6.93,4.64-8.42,14.72-17.25,29.51-24.78,42a4,4,0,0,1-1.88,1.47c-.94-.07-1.87-.11-2.76-.11A27.32,27.32,0,0,0,302,191c0-1.56,0-3.09,0-4.61,0-7.12,0-13.84.05-20.59,0-.87,0-1.74,0-2.61.05-9.18.09-17.84,7.91-24.54L314,135.1Z"/><path class="cls-1" d="M77.43,244.72c-.4-.43-.82-.85-1.24-1.26a19.06,19.06,0,0,1-2.7-3.09Q57.64,216.19,41.85,192q-10-15.27-19.94-30.54c-1.21-1.85-2.53-3.69-3.81-5.46L17,154.44l0,18.43c0,18-.08,36.57.19,54.84a42.63,42.63,0,0,0,2,10.63c.47,1.69.95,3.43,1.34,5.18l.27,1.21H5.41l.88-1.5c4.82-8.24,4.48-17.2,4.15-25.87-.11-2.79-.22-5.68-.15-8.51.45-20.16.46-40.33,0-59.94-.05-2.24-1.41-4.57-2.85-7-.71-1.21-1.44-2.45-2-3.73l-.66-1.43H24.56l.28.54c1.27,2.42,2.49,4.87,3.68,7.23,2.63,5.28,5.13,10.26,8.11,15C45.1,173.12,54,186.8,62.51,200q4.71,7.28,9.4,14.55a10.92,10.92,0,0,0,2.32,2.73V205.71q0-17.4,0-34.79c0-1.7.06-3.43.13-5.09a71,71,0,0,0-.09-9.79c-.46-4.37-1.29-8.62-2.17-13.12-.38-1.92-.76-3.85-1.1-5.79L70.8,136h15L85,137.44c-4.31,7.67-4.16,16.09-4,24.23,0,1.79.07,3.58,0,5.36-.1,15.81-.11,31.88-.13,47.42q0,12,0,24.07c0,1.12-.09,2.24-.17,3.32,0,.5-.07,1-.1,1.5l0,.55L78,245.3Z"/><path class="cls-1" d="M84.08,137c-5.39,9.58-4,19.94-4.09,30.08-.15,23.83-.1,47.66-.16,71.49,0,1.58-.18,3.17-.27,4.76l-1.39.77a35.53,35.53,0,0,1-3.85-4.22q-25.83-39.45-51.57-79c-1.79-2.74-3.76-5.35-5.65-8l-1.09.42c0,24.82-.2,49.64.16,74.45.07,5.31,2.19,10.58,3.39,16H7.15c6.54-11.17,3.88-23.22,4.14-34.86q.66-30,0-60c-.08-3.68-3.17-7.3-5-11.17H24c4,7.65,7.44,15.3,11.83,22.35,11.54,18.49,23.49,36.72,35.29,55a11.13,11.13,0,0,0,4.16,4.07q0-24.12,0-48.26c0-5,.54-10,0-15-.66-6.33-2.13-12.58-3.28-19H84.08m3.42-2H69.6L70,137.3c.35,2,.74,3.92,1.11,5.81.87,4.48,1.7,8.71,2.15,13a68.6,68.6,0,0,1,.09,9.64c-.07,1.68-.13,3.41-.13,5.13q0,17.4,0,34.82v9c-.17-.24-.32-.48-.48-.72q-4.68-7.28-9.39-14.53C54.8,186.27,46,172.59,37.48,159c-3-4.75-5.44-9.71-8.07-15-1.19-2.37-2.41-4.83-3.69-7.26l-.56-1.07H3.2l1.33,2.85c.62,1.32,1.36,2.59,2.07,3.81C8,144.73,9.28,147,9.32,148.93c.43,19.6.42,39.75,0,59.9-.07,2.86,0,5.76.15,8.57.34,8.92.66,17.34-4,25.32l-1.77,3h18.4l-.54-2.43c-.4-1.77-.89-3.53-1.36-5.23a41.53,41.53,0,0,1-2-10.38c-.27-18.26-.23-36.85-.19-54.82q0-7.67,0-15.33c1.05,1.45,2.1,2.93,3.07,4.42Q31,177.21,41,192.46c10.37,15.89,21.1,32.32,31.67,48.46a20.23,20.23,0,0,0,2.83,3.24c.43.43.84.83,1.22,1.24l1.06,1.15,1.37-.75.93-.51.47-.26,1-.53.07-1.1c0-.5.06-1,.1-1.49.08-1.1.17-2.23.17-3.39q0-12,0-24c0-15.56,0-31.64.13-47.46,0-1.8,0-3.62,0-5.39-.15-8.37-.3-16.29,3.88-23.72l1.68-3Z"/><path class="cls-1" d="M135.9,256c-4.47,0-9-2.23-13.5-6.62-11.32-11.07-16.44-25.26-20.28-38.94-8.77-31.24-11.93-65-9.66-103.18C93.67,86.72,96.32,60,106.11,34.7A98.21,98.21,0,0,1,120.64,9.09C124.88,3.8,130,1,135.4,1c5.65,0,11.34,3.15,16,8.86,10.73,13.05,15.65,29,19.36,44.34a214.07,214.07,0,0,1,5,26.55c1.24,11.2,2.12,22.62,3,33.66.36,4.69.72,9.39,1.11,14.08v.11c-.92,27.61-3.29,60.05-13.89,91.29-3.25,9.59-7.75,20.57-16.43,29.25C145,253.66,140.43,256,135.9,256ZM135.29,9.27c-3.7,0-7.3,2.42-10.14,6.81a78.07,78.07,0,0,0-8.09,16.78c-7.82,22.49-10.35,45.87-11.92,67.79A383.81,383.81,0,0,0,111,202.25c2.36,12,5.85,25.88,13.8,38.31,3,4.72,6.4,7.21,9.77,7.21,3.11,0,6.24-2,9.32-6a79.24,79.24,0,0,0,9.91-17.48c5.84-13.8,9.63-29.38,11.92-49,.53-4.48.91-9,1.25-13.55-1.56,8.39-3.63,16.79-8.84,24.06-2.44,3.4-5.26,5.2-8.17,5.2-2,0-4.92-.86-7.65-5A62.19,62.19,0,0,1,134,168.2a182.69,182.69,0,0,1-2.19-87.46,70.84,70.84,0,0,1,8.35-20.4c2.32-4,5.15-4.8,7.12-4.8,2.62,0,5.28,1.46,7.68,4.23a27,27,0,0,1,4.45,6.95c1.37,3.22,2.6,6.54,3.79,9.79l-.33-2.18C162,68.06,161,61.57,159.7,55.27c-2.85-13.93-6.07-27.41-14.08-39.23C142.65,11.67,139,9.27,135.29,9.27Z"/><path class="cls-1" d="M135.4,2c5.31,0,10.68,2.91,15.26,8.49C161.19,23.31,166,38.71,169.82,54.44a210.8,210.8,0,0,1,5,26.42c1.75,15.86,2.75,31.8,4.06,47.71-1,31-3.83,61.51-13.84,91-3.59,10.61-8.1,20.78-16.18,28.88-4.33,4.33-8.62,6.51-12.92,6.51s-8.47-2.1-12.8-6.33c-10.85-10.61-16-24.37-20-38.51-9.45-33.66-11.69-68.06-9.63-102.84C94.92,82.61,98.08,58.2,107,35.07A97.34,97.34,0,0,1,121.42,9.71c4.17-5.2,9-7.71,14-7.71m-.85,246.77c3.36,0,6.8-2.09,10.11-6.38a80,80,0,0,0,10-17.7c6.66-15.74,10-32.4,12-49.3,1.16-10,1.64-20.09,2.43-30.13-1.27,3.74-1.62,7.55-2.28,11.31-1.75,10-3.45,20.11-9.55,28.62-2.26,3.16-4.83,4.79-7.36,4.79s-4.79-1.48-6.82-4.54a61.3,61.3,0,0,1-8.12-17.5,181.35,181.35,0,0,1-2.17-87,70.53,70.53,0,0,1,8.23-20.1c1.71-2.92,3.92-4.31,6.26-4.31s4.72,1.34,6.93,3.88a26.24,26.24,0,0,1,4.28,6.7c2.2,5.15,4,10.48,6,15.73l.72-.08c-1.49-9.24-2.67-18.54-4.55-27.7-2.83-13.85-6.14-27.65-14.24-39.59-3.25-4.8-7.22-7.21-11.15-7.21s-7.84,2.41-11,7.27a79.44,79.44,0,0,0-8.19,17c-7.65,22-10.32,45-12,68.05A382.42,382.42,0,0,0,110,202.44c2.68,13.57,6.38,26.84,13.94,38.66,3.24,5.07,6.88,7.67,10.61,7.67M135.4,0c-5.73,0-11.1,2.93-15.54,8.46a99.08,99.08,0,0,0-14.68,25.88c-9.84,25.4-12.5,52.25-13.72,72.81-2.28,38.3.89,72.16,9.69,103.51,3.88,13.82,9.06,28.15,20.55,39.39,4.69,4.58,9.46,6.9,14.2,6.9s9.62-2.39,14.33-7.1c8.82-8.83,13.38-19.94,16.67-29.64,10.64-31.36,13-63.89,13.94-91.58v-.23c-.38-4.68-.75-9.45-1.1-14.06-.85-11-1.72-22.48-3-33.69a216.32,216.32,0,0,0-5-26.68C168,38.53,163.06,22.43,152.2,9.22,147.32,3.27,141.35,0,135.4,0Zm-.85,246.77c-3.81,0-7-3.67-8.93-6.75-7.86-12.29-11.32-26.09-13.66-38a383.12,383.12,0,0,1-5.82-101.34c1.56-21.85,4.08-45.15,11.87-67.54a77.17,77.17,0,0,1,8-16.56c2.65-4.1,6-6.35,9.3-6.35s6.73,2.25,9.5,6.33c7.91,11.67,11.11,25,13.93,38.87.82,4,1.5,8,2.14,12l-.49-1.17a28.35,28.35,0,0,0-4.61-7.22c-2.6-3-5.52-4.57-8.44-4.57-3.15,0-6,1.88-8,5.3a71.64,71.64,0,0,0-8.45,20.68,183.67,183.67,0,0,0,2.19,87.94,63,63,0,0,0,8.39,18.09c3,4.49,6.25,5.43,8.48,5.43s5.66-1,9-5.62a44.33,44.33,0,0,0,5.83-11.6c0,.13,0,.26,0,.39-2.28,19.56-6.05,35-11.85,48.76a78.28,78.28,0,0,1-9.78,17.26c-2.84,3.66-5.78,5.6-8.53,5.6Z"/><path class="cls-1" d="M231.62,256.09c-4.41,0-9-2.14-13.49-6.36-8.19-7.6-12.72-17.43-16.08-26-6.75-17.31-10.94-36.52-13.17-60.46-.78-8.34-1.16-16.56-1.46-23.16-.11-2.41-.21-4.54-.31-6.31C187.44,102.81,189.24,70,200,39a118.45,118.45,0,0,1,13.64-27.23c4.62-6.79,10.64-10.53,16.95-10.53s12.5,3.67,17.56,10.32c10.51,13.81,15.21,30.11,18.73,45.67,7.8,34.46,9.51,71.09,5.22,112-1.75,16.71-4.94,38.53-14.19,59.16A86.18,86.18,0,0,1,244.78,249c-4.06,4.71-8.49,7.1-13.16,7.1ZM230.68,9.27c-3.52,0-6.88,2.15-9.46,6.07a79.71,79.71,0,0,0-9.16,18.94c-9.84,30.33-11.68,61.54-12.18,85.35-.81,37.85,2,66.62,9.2,93.31a179.27,179.27,0,0,0,11.09,29.63c2.21,4.67,5.33,7.25,8.79,7.25,2.84,0,5.82-1.69,8.62-4.87a59,59,0,0,0,8.71-13.55c6.59-13.77,11-29.67,13.48-48.59,1-7.89,1.75-15.95,2.42-23.81-2,7.74-4,15.29-6.62,22.6-2.1,5.94-5.72,9.09-10.47,9.09-6.28,0-9.15-5.72-10.69-8.79A76.42,76.42,0,0,1,229,168.32a172.34,172.34,0,0,1-5.4-64.74c1.25-12.16,4.32-24.12,7.28-35.69,2-7.78,5.89-11.8,11.57-12h.32c7.06,0,9.84,6.5,11.88,11.25,1.71,4,3.13,8.16,4.49,12.25l-.6-3.64c-1.39-8.49-2.82-17.26-4.6-25.81-2.48-11.86-5.82-24.28-13.41-34.71C237.69,11.4,234.2,9.27,230.68,9.27Z"/><path class="cls-1" d="M230.63,2.19c5.83,0,11.76,3.35,16.76,9.92C257.6,25.53,262.3,41.3,266,57.4c8.34,36.9,9.12,74.18,5.2,111.66-2.12,20.23-5.75,40.2-14.11,58.85a85.09,85.09,0,0,1-13,20.43c-3.92,4.55-8.09,6.75-12.4,6.75S223.13,253,218.81,249c-7.6-7.06-12.13-16.18-15.83-25.67-7.54-19.36-11.18-39.62-13.11-60.19-1.07-11.43-1.39-22.92-1.76-29.44.38-35.35,2.81-65.51,12.87-94.42a116.9,116.9,0,0,1,13.53-27c4.6-6.77,10.31-10.09,16.12-10.09M229,250.82c3.07,0,6.32-1.74,9.37-5.21a61,61,0,0,0,8.87-13.78c7.39-15.46,11.34-32,13.56-48.89,1.64-12.53,2.46-25.17,3.65-37.76-1.55,3.7-1.66,7.58-2.59,11.26-2.14,8.34-4.33,16.71-7.19,24.83-1.48,4.17-4.25,8.42-9.53,8.42h0c-5.21,0-7.78-4.22-9.8-8.24a76.63,76.63,0,0,1-5.36-13.4,171.13,171.13,0,0,1-5.37-64.37c1.23-12,4.26-23.83,7.26-35.54,1.34-5.2,4.17-11,10.63-11.21h.29c6.28,0,8.85,5.72,11,10.64,2.72,6.34,4.65,13,6.93,19.53l.76-.1c-2.14-12.41-3.93-24.9-6.5-37.22s-6-24.66-13.58-35.09c-3.11-4.26-6.9-6.42-10.64-6.42s-7.42,2.15-10.29,6.52A80.53,80.53,0,0,0,211.11,34c-9,27.8-11.62,56.6-12.23,85.64-.67,31.55,1,63,9.23,93.59A179.92,179.92,0,0,0,219.27,243c2.46,5.22,5.93,7.83,9.69,7.83M230.63.19c-6.65,0-13,3.9-17.77,11A118.66,118.66,0,0,0,199.1,38.62c-10.85,31.15-12.65,64.09-13,95.06v.14q.15,2.64.31,6.29c.3,6.62.68,14.85,1.46,23.22,2.25,24,6.45,43.33,13.24,60.72,3.4,8.72,8,18.68,16.33,26.42,4.73,4.39,9.5,6.62,14.17,6.62,5,0,9.66-2.5,13.92-7.44a87.21,87.21,0,0,0,13.32-20.92c9.31-20.75,12.52-42.68,14.28-59.46,4.29-41,2.58-77.74-5.24-112.31-3.55-15.67-8.29-32.1-18.91-46.06C243.73,4,237.21.19,230.63.19ZM229,248.82c-3.05,0-5.85-2.37-7.88-6.68a178.23,178.23,0,0,1-11-29.46c-7.14-26.59-10-55.28-9.17-93,.51-23.74,2.34-54.86,12.14-85.06a78.47,78.47,0,0,1,9.05-18.7c2.38-3.63,5.44-5.62,8.62-5.62s6.39,2,9,5.59c7.48,10.28,10.79,22.57,13.24,34.33,1.27,6.1,2.37,12.33,3.4,18.49-.26-.64-.52-1.27-.79-1.9-2-4.72-5.08-11.85-12.8-11.85h-.35c-4.24.12-9.86,2.42-12.5,12.72-3,11.6-6.06,23.6-7.32,35.83A173.66,173.66,0,0,0,228,168.59a77.77,77.77,0,0,0,5.51,13.76c1.64,3.26,4.69,9.34,11.58,9.34,3.64,0,8.57-1.7,11.41-9.76,1.34-3.78,2.53-7.62,3.65-11.52-.4,4.1-.85,8.21-1.38,12.27-2.47,18.82-6.85,34.61-13.39,48.29a58.17,58.17,0,0,1-8.57,13.32c-2.6,3-5.31,4.53-7.86,4.53Z"/><path class="cls-1" d="M37.13,122.77a62.54,62.54,0,0,1-8.88-.86c-2.25-.33-4.58-.67-6.85-.79-1.92-.11-4-.16-6.53-.16-1.69,0-3.41,0-5.18,0s-3.83,0-5.86,0H1.91L3,119.48C8.63,111.39,9.09,102.83,9.08,94q0-24.32,0-48.62V40.59c0-8.79-.45-17.32-6-25.06L2,14l3.65-.16c1,0,1.81-.08,2.61-.13,2.75-.19,5.5-.4,8.25-.61,5.76-.43,11.72-.88,17.6-1.16,1.25-.06,2.5-.09,3.71-.09,10,0,18.57,2,26.19,6.23A27.23,27.23,0,0,1,78,42.5a24.8,24.8,0,0,1-12.4,21.4l3.54,1.68C82.52,71.85,88,81.62,87,97.23c-.72,10.89-8.9,19.51-21.33,22.52-8.56,2.06-17.41,2.58-27.27,3-.4,0-.81,0-1.22,0ZM20.71,94.09c-.13,10,3.63,16.92,11.5,21a30.49,30.49,0,0,0,14.21,3.64,31.63,31.63,0,0,0,15.83-4.46c3.54-2,7.71-6.26,8.84-10.43,2.76-10.15,1.36-20.35-3.76-27.3C62.47,70,54.42,66.26,44,65.88l-1.28,0c-11.2,0-17.88,5.58-20.43,17-.55,2.5-.87,5.13-1.17,7.66C21,91.74,20.88,92.92,20.71,94.09ZM38.2,16.64c-10,0-16.53,6.31-17,16.45-.46,9.52-.35,19.24-.24,28.64,0,3.13.07,6.34.09,9.55A27.14,27.14,0,0,1,38.31,61.05a43,43,0,0,1,7-.54,56.21,56.21,0,0,1,5.71.3c.41,0,.8.06,1.18.06,2.77,0,4.82-1.11,6.88-3.72,4.31-5.5,5.45-13.72,3-22S54.4,20.7,47.9,18.42A29.46,29.46,0,0,0,38.2,16.64Z"/><path class="cls-1" d="M37.77,12.88c9,0,17.64,1.67,25.71,6.11,17.05,9.37,19.1,35.23,0,45l5.3,2.51C81.68,72.57,87,82,86,97.16c-.67,10-8,18.58-20.57,21.61-8.77,2.12-18,2.59-27.08,3-.39,0-.78,0-1.18,0-5.19,0-10.43-1.36-15.67-1.65-2.18-.12-4.36-.16-6.59-.16-3.49,0-7.11.09-11,.09,5.85-8.42,6.26-17.16,6.25-26q0-26.73,0-53.45C10.1,31.74,9.68,23,3.85,15c1.93-.09,3.18-.13,4.43-.21,8.61-.6,17.21-1.36,25.83-1.77q1.83-.09,3.66-.09M20.05,74.36c4.56-7,10.67-11,18.42-12.32a41.83,41.83,0,0,1,6.82-.53,54.87,54.87,0,0,1,5.61.3c.44,0,.87.06,1.28.06,3.3,0,5.59-1.46,7.66-4.1,9.56-12.17,3-35.18-11.61-40.29a30.5,30.5,0,0,0-10-1.84c-10.18,0-17.49,6.38-18,17.41-.66,13.74-.14,27.54-.14,41.31m26.37,45.39a32.62,32.62,0,0,0,16.33-4.6c4-2.28,8.15-6.76,9.31-11,4.84-17.8-2.09-38.3-28-39.23l-1.31,0c-11.77,0-18.77,6-21.41,17.82-.82,3.72-1.11,7.55-1.64,11.33-.14,9.69,3.28,17.42,12,22a31.55,31.55,0,0,0,14.67,3.75M37.77,10.88c-1.22,0-2.49,0-3.76.09-5.89.28-11.85.73-17.62,1.17l-8.24.6c-.8.06-1.59.09-2.6.13L3.75,13l-3.7.17,2.18,3c5.43,7.5,5.87,15.52,5.86,24.47v5.09c0,15.85,0,32.24,0,48.36,0,8.95-.43,17-5.9,24.87L0,122.05H3.83c2,0,4,0,5.88,0s3.48,0,5.16,0c2.52,0,4.58.05,6.48.16,2.22.12,4.53.45,6.76.78a62.63,62.63,0,0,0,9,.87q.63,0,1.26,0c9.92-.42,18.82-.93,27.47-3C78.73,117.61,87.2,108.63,88,97.29,89,81.21,83.37,71.15,69.61,64.67l-1.91-.9A25.69,25.69,0,0,0,79,42.52a28.25,28.25,0,0,0-14.6-25.29C56.67,13,48,10.88,37.77,10.88ZM22,68.61c0-2.32,0-4.63-.07-6.9-.11-9.38-.22-19.08.23-28.57s6.6-15.49,16-15.5a28.27,28.27,0,0,1,9.37,1.73c6.19,2.17,11.26,8.17,13.56,16.05s1.26,15.87-2.86,21.11c-1.87,2.37-3.63,3.34-6.09,3.34-.34,0-.7,0-1.07,0a55.71,55.71,0,0,0-5.82-.31,44,44,0,0,0-7.15.56A27.88,27.88,0,0,0,22,68.61Zm-.31,25.56c.16-1.17.3-2.35.44-3.49.32-2.63.61-5.11,1.16-7.56C25.77,72,32,66.86,42.76,66.86l1.24,0c10.06.37,17.85,3.92,22.53,10.27,4.93,6.7,6.28,16.59,3.6,26.44-.94,3.45-4.46,7.58-8.37,9.83a30.69,30.69,0,0,1-15.34,4.33,29.68,29.68,0,0,1-13.75-3.52c-7.48-3.91-11.07-10.47-11-20.06Z"/></g></g></svg>